HIERARCHY
ROOT SimulationBone
{
	OFFSET 0.000000 0.000000 0.000000
	CHANNELS 6 Xposition Yposition Zposition Zrotation Yrotation Xrotation 
	JOINT Hips
	{
		OFFSET 0.000000 0.000000 0.000000
		CHANNELS 6 Xposition Yposition Zposition Zrotation Yrotation Xrotation 
		JOINT LeftUpLeg
		{
			OFFSET 0.103458 1.857842 10.548504
			CHANNELS 3 Zrotation Yrotation Xrotation
			JOINT LeftLeg
			{
				OFFSET 43.500000 -0.000038 0.000000
				CHANNELS 3 Zrotation Yrotation Xrotation
				JOINT LeftFoot
				{
					OFFSET 42.372200 0.000008 0.000004
					CHANNELS 3 Zrotation Yrotation Xrotation
					JOINT LeftToe
					{
						OFFSET 17.299992 -0.000003 -0.000013
						CHANNELS 3 Zrotation Yrotation Xrotation
						End Site
						{
							OFFSET 0.000000 0.000000 0.000000
						}
					}
				}
			}
		}
		JOINT RightUpLeg
		{
			OFFSET 0.103456 1.857816 -10.548503
			CHANNELS 3 Zrotation Yrotation Xrotation
			JOINT RightLeg
			{
				OFFSET 43.500042 -0.000023 0.000008
				CHANNELS 3 Zrotation Yrotation Xrotation
				JOINT RightFoot
				{
					OFFSET 42.372265 -0.000008 0.000010
					CHANNELS 3 Zrotation Yrotation Xrotation
					JOINT RightToe
					{
						OFFSET 17.300022 0.000005 0.000000
						CHANNELS 3 Zrotation Yrotation Xrotation
						End Site
						{
							OFFSET 0.000000 0.000000 0.000000
						}
					}
				}
			}
		}
		JOINT Spine
		{
			OFFSET 6.901966 -2.603735 -0.000002
			CHANNELS 3 Zrotation Yrotation Xrotation
			JOINT Spine1
			{
				OFFSET 12.588103 0.000016 0.000000
				CHANNELS 3 Zrotation Yrotation Xrotation
				JOINT Spine2
				{
					OFFSET 12.343200 0.000002 -0.000002
					CHANNELS 3 Zrotation Yrotation Xrotation
					JOINT Neck
					{
						OFFSET 25.832891 -0.000029 0.000006
						CHANNELS 3 Zrotation Yrotation Xrotation
						JOINT Head
						{
							OFFSET 11.766613 0.000029 -0.000002
							CHANNELS 3 Zrotation Yrotation Xrotation
							End Site
							{
								OFFSET 0.000000 0.000000 0.000000
							}
						}
					}
					JOINT LeftShoulder
					{
						OFFSET 19.745903 -1.480385 6.000109
						CHANNELS 3 Zrotation Yrotation Xrotation
						JOINT LeftArm
						{
							OFFSET 11.284124 -0.000024 -0.000022
							CHANNELS 3 Zrotation Yrotation Xrotation
							JOINT LeftForeArm
							{
								OFFSET 33.000057 0.000000 0.000033
								CHANNELS 3 Zrotation Yrotation Xrotation
								JOINT LeftHand
								{
									OFFSET 25.199997 0.000045 -0.000004
									CHANNELS 3 Zrotation Yrotation Xrotation
									End Site
									{
										OFFSET 0.000000 0.000000 0.000000
									}
								}
							}
						}
					}
					JOINT RightShoulder
					{
						OFFSET 19.746105 -1.480396 -6.000069
						CHANNELS 3 Zrotation Yrotation Xrotation
						JOINT RightArm
						{
							OFFSET 11.284142 -0.000028 -0.000010
							CHANNELS 3 Zrotation Yrotation Xrotation
							JOINT RightForeArm
							{
								OFFSET 33.000084 0.000033 0.000011
								CHANNELS 3 Zrotation Yrotation Xrotation
								JOINT RightHand
								{
									OFFSET 25.199783 0.000119 0.000426
									CHANNELS 3 Zrotation Yrotation Xrotation
									End Site
									{
										OFFSET 0.000000 0.000000 0.000000
									}
								}
							}
						}
					}
				}
			}
		}
	}
}
MOTION
Frames: 6
Frame Time: 0.016667
-371.214704 0.000000 63.911646 0.000000 -24.407768 0.000000 -6.813685 84.620270 -0.161957 89.981040 -1.280857 -179.881149 158.197686 -15.776000 158.429885 -48.099584 -3.027162 -3.321901 93.568898 1.395957 -7.016071 21.454551 0.003092 0.000000 153.091463 25.111497 -173.842521 -28.205359 0.319830 3.260066 79.130821 -0.651169 6.237743 21.454560 -0.003107 -0.000018 13.710214 -0.679395 -0.230012 17.411979 -1.316395 -0.559769 17.093791 -1.319617 -0.551794 -5.983282 16.432832 -0.285913 -23.963405 -2.701818 4.522702 166.611192 -85.229013 11.857876 -26.651296 49.188238 23.834950 -45.313544 -20.542265 1.971929 -3.764665 -16.539858 17.852439 162.110905 73.150762 -16.959803 -16.159094 -52.358590 -16.876346 -46.524813 24.240351 -2.286081 1.123928 24.525421 -14.777738 
-371.325897 0.000000 64.082529 0.000000 -25.611240 0.000000 -6.751759 84.561440 -0.235568 90.027352 -1.555340 -179.892166 158.691024 -15.803861 157.739885 -48.135489 -3.080726 -3.631431 93.674956 1.585509 -7.239108 21.454554 0.003090 0.000000 152.733356 25.580565 -172.433862 -28.386608 0.366954 4.027685 78.978309 -1.191633 6.225969 21.454558 -0.003111 -0.000016 13.692292 -0.691373 -0.277299 17.376744 -1.333202 -0.655415 17.058588 -1.337002 -0.647336 -5.853327 16.659451 0.142844 -24.015674 -3.278779 5.247712 168.716284 -85.172760 9.740149 -27.533595 49.344996 23.082396 -45.572867 -20.565761 1.981513 -3.891340 -16.308871 18.336656 162.180321 73.245374 -16.884436 -15.832171 -52.516102 -17.225811 -46.080495 24.181180 -2.267829 1.238514 25.418767 -13.836857 
-371.441982 0.000000 64.314720 0.000000 -26.804472 0.000000 -6.699843 84.497887 -0.328481 90.052798 -1.812534 -179.915040 159.167791 -15.862793 157.033111 -48.185112 -3.092855 -3.929040 93.785115 1.761154 -7.508672 21.454555 0.003090 0.000000 152.331850 26.006701 -170.986887 -28.702120 0.352106 4.790516 78.883452 -1.749034 6.136364 21.454557 -0.003106 -0.000015 13.671528 -0.698752 -0.308626 17.335621 -1.343308 -0.718597 17.017466 -1.347490 -0.710457 -5.797762 16.969897 0.547458 -23.931385 -3.934776 6.005733 169.029134 -85.133801 9.426398 -28.309721 49.492236 22.502004 -45.807557 -20.603156 1.991046 -4.086607 -16.352926 18.345137 162.417431 73.240927 -16.641932 -15.431971 -52.570742 -17.673105 -45.701331 24.137302 -2.252895 1.217433 26.374221 -13.136364 
-371.562645 0.000000 64.607064 0.000000 -27.987907 0.000000 -6.661698 84.436064 -0.441907 90.058033 -2.054503 -179.948191 159.641185 -15.946435 156.331982 -48.223844 -3.092806 -4.223424 93.886725 1.930193 -7.813508 21.454554 0.003091 -0.000000 151.876594 26.383202 -169.642816 -29.129626 0.325327 5.588158 78.781304 -2.310755 6.122281 21.454556 -0.003099 -0.000016 13.649316 -0.700960 -0.328521 17.291431 -1.344879 -0.758247 16.973265 -1.349300 -0.750098 -5.769315 17.336292 0.928061 -23.781779 -4.652076 6.776657 168.311971 -85.109259 10.149517 -29.045875 49.637462 21.988047 -46.038023 -20.632407 1.999992 -4.333017 -16.564234 18.087645 162.743107 73.176997 -16.311420 -15.005421 -52.562075 -18.134346 -45.371309 24.102970 -2.240213 1.075651 27.371442 -12.654046 
-371.687570 0.000000 64.958404 0.000000 -29.161969 0.000000 -6.641197 84.382423 -0.576803 90.043587 -2.283347 -179.990076 160.124155 -16.048491 155.659069 -48.226766 -3.109590 -4.523262 93.967146 2.099746 -8.142408 21.454553 0.003092 0.000000 151.355065 26.701505 -168.544125 -29.645578 0.336726 6.459727 78.603858 -2.863591 6.338416 21.454557 -0.003099 -0.000017 13.627055 -0.697428 -0.341510 17.247010 -1.336084 -0.783302 16.928839 -1.340655 -0.775206 -5.721067 17.730109 1.285075 -23.637260 -5.411062 7.541872 167.289375 -85.091549 11.180047 -29.809875 49.785340 21.433244 -46.284605 -20.631471 2.007641 -4.611620 -16.834133 17.773093 163.079303 73.093450 -15.970955 -14.598131 -52.530782 -18.526947 -45.074473 24.072412 -2.228854 0.828038 28.388543 -12.367523 
-371.816441 0.000000 65.367585 0.000000 -30.327066 0.000000 -6.640859 84.339067 -0.731634 90.009793 -2.504545 179.963504 160.622631 -16.160185 155.031658 -48.180577 -3.159842 -4.834853 94.018882 2.274444 -8.490151 21.454551 0.003092 0.000000 150.756892 26.961545 -167.766566 -30.229053 0.416344 7.396297 78.307000 -3.380633 6.858597 21.454557 -0.003110 -0.000019 13.605774 -0.688335 -0.352549 17.204467 -1.316528 -0.803659 16.886309 -1.321219 -0.795681 -5.620428 18.128664 1.622798 -23.550654 -6.192351 8.291300 166.535873 -85.075606 11.939546 -30.651198 49.935637 20.763290 -46.562994 -20.591119 2.013733 -4.902750 -17.077140 17.583814 163.369217 73.025765 -15.677130 -14.248868 -52.511522 -18.789674 -44.797954 24.042721 -2.218257 0.511859 29.391410 -12.233589 
